<?xml version="1.0" encoding="UTF-8" standalone="no"?>
<!DOCTYPE svg PUBLIC "-//W3C//DTD SVG 1.1//EN"
 "http://www.w3.org/Graphics/SVG/1.1/DTD/svg11.dtd">
<!-- Generated by graphviz version 2.38.0 (20140413.2041)
 -->
<!-- Title: %3 Pages: 1 -->
<svg width="349pt" height="476pt"
 viewBox="0.00 0.00 349.00 476.00" xmlns="http://www.w3.org/2000/svg" xmlns:xlink="http://www.w3.org/1999/xlink">
<g id="graph0" class="graph" transform="scale(1 1) rotate(0) translate(4 472)">
<title>%3</title>
<polygon fill="white" stroke="none" points="-4,4 -4,-472 345,-472 345,4 -4,4"/>
<!-- node1069 -->
<g id="node1" class="node"><title>node1069</title>
<polygon fill="#bebada" stroke="black" points="157,-36 83,-36 83,-0 157,-0 157,-36"/>
<text text-anchor="middle" x="120" y="-14.3" font-family="Monospace" font-size="14.00">tracker</text>
</g>
<!-- node1070 -->
<g id="node2" class="node"><title>node1070</title>
<polygon fill="#80b1d3" stroke="black" points="341,-180 217,-180 217,-144 341,-144 341,-180"/>
<text text-anchor="middle" x="279" y="-158.3" font-family="Monospace" font-size="14.00">uk&#45;dispatcher</text>
</g>
<!-- node1075 -->
<g id="node7" class="node"><title>node1075</title>
<text text-anchor="middle" x="266" y="-86.3" font-family="Monospace" font-size="14.00">goods&#45;sent</text>
</g>
<!-- node1070&#45;&gt;node1075 -->
<g id="edge1" class="edge"><title>node1070&#45;&gt;node1075</title>
<path fill="none" stroke="black" d="M275.787,-143.697C274.354,-135.983 272.632,-126.712 271.035,-118.112"/>
<polygon fill="black" stroke="black" points="274.444,-117.297 269.177,-108.104 267.561,-118.575 274.444,-117.297"/>
</g>
<!-- node1071 -->
<g id="node3" class="node"><title>node1071</title>
<text text-anchor="middle" x="120" y="-230.3" font-family="Monospace" font-size="14.00">goods&#45;damaged</text>
</g>
<!-- node1073 -->
<g id="node5" class="node"><title>node1073</title>
<polygon fill="#80b1d3" stroke="black" points="198.5,-180 41.5,-180 41.5,-144 198.5,-144 198.5,-180"/>
<text text-anchor="middle" x="120" y="-158.3" font-family="Monospace" font-size="14.00">uk&#45;repair&#45;service</text>
</g>
<!-- node1071&#45;&gt;node1073 -->
<g id="edge2" class="edge"><title>node1071&#45;&gt;node1073</title>
<path fill="none" stroke="black" d="M120,-215.697C120,-207.983 120,-198.712 120,-190.112"/>
<polygon fill="black" stroke="black" points="123.5,-190.104 120,-180.104 116.5,-190.104 123.5,-190.104"/>
</g>
<!-- node1072 -->
<g id="node4" class="node"><title>node1072</title>
<text text-anchor="middle" x="272" y="-230.3" font-family="Monospace" font-size="14.00">goods&#45;packaged</text>
</g>
<!-- node1072&#45;&gt;node1070 -->
<g id="edge3" class="edge"><title>node1072&#45;&gt;node1070</title>
<path fill="none" stroke="black" d="M273.73,-215.697C274.502,-207.983 275.429,-198.712 276.289,-190.112"/>
<polygon fill="black" stroke="black" points="279.777,-190.403 277.29,-180.104 272.812,-189.706 279.777,-190.403"/>
</g>
<!-- node1078 -->
<g id="node10" class="node"><title>node1078</title>
<text text-anchor="middle" x="120" y="-86.3" font-family="Monospace" font-size="14.00">goods&#45;repaired</text>
</g>
<!-- node1073&#45;&gt;node1078 -->
<g id="edge4" class="edge"><title>node1073&#45;&gt;node1078</title>
<path fill="none" stroke="black" d="M120,-143.697C120,-135.983 120,-126.712 120,-118.112"/>
<polygon fill="black" stroke="black" points="123.5,-118.104 120,-108.104 116.5,-118.104 123.5,-118.104"/>
</g>
<!-- node1074 -->
<g id="node6" class="node"><title>node1074</title>
<polygon fill="#b3de69" stroke="black" points="132,-468 0,-468 0,-432 132,-432 132,-468"/>
<text text-anchor="middle" x="66" y="-446.3" font-family="Monospace" font-size="14.00">order&#45;listener</text>
</g>
<!-- node1076 -->
<g id="node8" class="node"><title>node1076</title>
<text text-anchor="middle" x="66" y="-374.3" font-family="Monospace" font-size="14.00">goods&#45;ordered</text>
</g>
<!-- node1074&#45;&gt;node1076 -->
<g id="edge5" class="edge"><title>node1074&#45;&gt;node1076</title>
<path fill="none" stroke="black" d="M66,-431.697C66,-423.983 66,-414.712 66,-406.112"/>
<polygon fill="black" stroke="black" points="69.5001,-406.104 66,-396.104 62.5001,-406.104 69.5001,-406.104"/>
</g>
<!-- node1075&#45;&gt;node1069 -->
<g id="edge6" class="edge"><title>node1075&#45;&gt;node1069</title>
<path fill="none" stroke="black" d="M230.284,-71.8761C210.503,-62.3917 185.728,-50.5134 164.674,-40.419"/>
<polygon fill="black" stroke="black" points="166.13,-37.2357 155.6,-36.0683 163.104,-43.5477 166.13,-37.2357"/>
</g>
<!-- node1076&#45;&gt;node1069 -->
<g id="edge8" class="edge"><title>node1076&#45;&gt;node1069</title>
<path fill="none" stroke="black" d="M55.0184,-359.841C39.4943,-333.892 13,-282.628 13,-235 13,-235 13,-235 13,-161 13,-118.965 19.5483,-105.453 45,-72 54.0113,-60.1556 66.4224,-49.9024 78.556,-41.6546"/>
<polygon fill="black" stroke="black" points="80.7913,-44.3773 87.2895,-36.0093 76.9912,-38.4986 80.7913,-44.3773"/>
</g>
<!-- node1077 -->
<g id="node9" class="node"><title>node1077</title>
<polygon fill="#b3de69" stroke="black" points="161.5,-324 78.5,-324 78.5,-288 161.5,-288 161.5,-324"/>
<text text-anchor="middle" x="120" y="-302.3" font-family="Monospace" font-size="14.00">packager</text>
</g>
<!-- node1076&#45;&gt;node1077 -->
<g id="edge7" class="edge"><title>node1076&#45;&gt;node1077</title>
<path fill="none" stroke="black" d="M79.3483,-359.697C85.7568,-351.389 93.5577,-341.277 100.606,-332.141"/>
<polygon fill="black" stroke="black" points="103.468,-334.16 106.805,-324.104 97.9259,-329.884 103.468,-334.16"/>
</g>
<!-- node1077&#45;&gt;node1071 -->
<g id="edge10" class="edge"><title>node1077&#45;&gt;node1071</title>
<path fill="none" stroke="black" d="M120,-287.697C120,-279.983 120,-270.712 120,-262.112"/>
<polygon fill="black" stroke="black" points="123.5,-262.104 120,-252.104 116.5,-262.104 123.5,-262.104"/>
</g>
<!-- node1077&#45;&gt;node1072 -->
<g id="edge9" class="edge"><title>node1077&#45;&gt;node1072</title>
<path fill="none" stroke="black" d="M157.183,-287.876C177.87,-278.349 203.802,-266.407 225.785,-256.283"/>
<polygon fill="black" stroke="black" points="227.318,-259.43 234.937,-252.068 224.39,-253.072 227.318,-259.43"/>
</g>
<!-- node1078&#45;&gt;node1069 -->
<g id="edge11" class="edge"><title>node1078&#45;&gt;node1069</title>
<path fill="none" stroke="black" d="M120,-71.6966C120,-63.9827 120,-54.7125 120,-46.1124"/>
<polygon fill="black" stroke="black" points="123.5,-46.1043 120,-36.1043 116.5,-46.1044 123.5,-46.1043"/>
</g>
</g>
</svg>
